<?xml version="1.0" encoding="utf-8"?>
<!-- Generator: Adobe Illustrator 25.0.1, SVG Export Plug-In . SVG Version: 6.00 Build 0)  -->
<svg version="1.1" id="Layer_1" xmlns="http://www.w3.org/2000/svg" xmlns:xlink="http://www.w3.org/1999/xlink" x="0px" y="0px"
	 viewBox="0 0 60 60" style="enable-background:new 0 0 60 60;" xml:space="preserve">
<style type="text/css">
	.st0{fill:#17DA9A;}
</style>
<g id="Layer_1_1_">
	<path class="st0" d="M15.5,5.6l-2.9,8.8c-0.1,0.3,0.1,0.5,0.3,0.6c0.1,0,0.1,0,0.2,0h5.8c0.3,0,0.5-0.2,0.5-0.5c0-0.1,0-0.1,0-0.2
		l-2.9-8.8c-0.1-0.3-0.4-0.4-0.6-0.3C15.7,5.3,15.6,5.4,15.5,5.6z"/>
	<path class="st0" d="M33,17h-6v10h6V17z M31,21c0,0.6-0.4,1-1,1s-1-0.4-1-1v-1c0-0.6,0.4-1,1-1s1,0.4,1,1V21z"/>
	<rect x="27" y="29" class="st0" width="6" height="2"/>
	<polygon class="st0" points="34.5,12 25.5,12 26.7,15 33.3,15 	"/>
	<rect x="14" y="21" class="st0" width="4" height="2"/>
	<path class="st0" d="M9.6,23.7L5.2,31h9.7l-4.4-7.3c-0.1-0.2-0.4-0.3-0.7-0.2C9.7,23.5,9.6,23.6,9.6,23.7z"/>
	<rect x="14" y="17" class="st0" width="4" height="2"/>
	<polygon class="st0" points="14,25.7 18,32.4 18,25 14,25 	"/>
	<path class="st0" d="M43.5,5.6l-2.9,8.8c-0.1,0.3,0.1,0.5,0.3,0.6c0.1,0,0.1,0,0.2,0h5.8c0.3,0,0.5-0.2,0.5-0.5c0-0.1,0-0.1,0-0.2
		l-2.9-8.8c-0.1-0.3-0.4-0.4-0.6-0.3C43.7,5.3,43.6,5.4,43.5,5.6z"/>
	<rect x="42" y="21" class="st0" width="4" height="2"/>
	<path class="st0" d="M35,10V6c0-0.6-0.4-1-1-1s-1,0.4-1,1v2h-2V6c0-0.6-0.4-1-1-1s-1,0.4-1,1v2h-2V6c0-0.6-0.4-1-1-1s-1,0.4-1,1v4
		H35z"/>
	<rect x="42" y="17" class="st0" width="4" height="2"/>
	<path class="st0" d="M43.6,35h12.7c0.3,0,0.5-0.2,0.5-0.5c0-0.1,0-0.2-0.1-0.3L56,33H44l-0.7,1.2c-0.1,0.2-0.1,0.5,0.2,0.7
		C43.5,35,43.6,35,43.6,35z"/>
	<path class="st0" d="M16,33H4l-0.7,1.2c-0.1,0.2-0.1,0.5,0.2,0.7C3.5,35,3.6,35,3.6,35h12.7c0.3,0,0.5-0.2,0.5-0.5
		c0-0.1,0-0.2-0.1-0.3L16,33z"/>
	<path class="st0" d="M54.8,31l-4.4-7.3c-0.1-0.2-0.4-0.3-0.7-0.2c-0.1,0-0.1,0.1-0.2,0.2L45.2,31H54.8z"/>
	<polygon class="st0" points="42,32.4 46,25.7 46,25 42,25 	"/>
	<path class="st0" d="M37,45H39c0-1.4-0.3-2.7-1-3.9C37.4,42.3,37,43.6,37,45z"/>
	<path class="st0" d="M21,45H23c0-1.4-0.3-2.7-1-3.9C21.4,42.3,21,43.6,21,45z"/>
	<path class="st0" d="M40.7,36.9C40.6,36.9,40.6,36.9,40.7,36.9c-0.2-0.1-0.3-0.1-0.4-0.2l0,0c-0.1-0.1-0.1-0.1-0.2-0.2
		c0,0,0,0,0-0.1c0,0,0-0.1,0-0.1c0-0.1-0.1-0.2-0.1-0.3c0,0,0,0,0,0v-3H20v3c0,0,0,0,0,0c0,0.1,0,0.2-0.1,0.3c0,0,0,0.1,0,0.1
		c0,0,0,0,0,0.1c0,0.1-0.1,0.1-0.2,0.2l0,0c-0.1,0.1-0.2,0.1-0.3,0.2c0,0-0.1,0-0.1,0C19.2,37,19.1,37,19,37h-2v17h6.4
		c1.2-6,4.4-7,6.6-7s5.4,1,6.6,7H43V37h-2C40.9,37,40.8,37,40.7,36.9z M24,47h-4c-0.6,0-1-0.4-1-1c0,0,0,0,0,0c0-3.5,0.9-7,3-7
		s3,3.5,3,7C25,46.6,24.6,47,24,47C24,47,24,47,24,47z M32,43h-4c-0.6,0-1-0.4-1-1c0,0,0,0,0,0c0-3.5,0.9-7,3-7s3,3.5,3,7
		C33,42.6,32.6,43,32,43C32,43,32,43,32,43z M40,47h-4c-0.6,0-1-0.4-1-1c0,0,0,0,0,0c0-3.5,0.9-7,3-7s3,3.5,3,7
		C41,46.6,40.6,47,40,47C40,47,40,47,40,47z"/>
	<path class="st0" d="M29,41H31c0-1.4-0.3-2.7-1-3.9C29.4,38.3,29,39.6,29,41z"/>
	<path class="st0" d="M45.5,58H49v-3c0-0.6,0.4-1,1-1s1,0.4,1,1v3h3.5c0.3,0,0.5-0.2,0.5-0.5V37H45v20.5C45,57.8,45.2,58,45.5,58z
		 M50,39c2.1,0,3,3.5,3,7c0,0.6-0.4,1-1,1c0,0,0,0,0,0h-4c-0.6,0-1-0.5-1-1c0,0,0,0,0,0C47,42.5,47.9,39,50,39z"/>
	<path class="st0" d="M50,41.1c-0.6,1.2-1,2.5-1,3.9H51C51,43.6,50.6,42.3,50,41.1z"/>
	<path class="st0" d="M37,58h5.5c0.3,0,0.5-0.2,0.5-0.5V56h-6.1C36.9,56.6,37,57.3,37,58z"/>
	<path class="st0" d="M17.5,58H23c0-0.7,0.1-1.4,0.1-2H17v1.5C17,57.8,17.2,58,17.5,58z"/>
	<path class="st0" d="M5.5,58H9v-3c0-0.6,0.4-1,1-1s1,0.4,1,1v3h3.5c0.3,0,0.5-0.2,0.5-0.5V37H5v20.5C5,57.8,5.2,58,5.5,58z M10,39
		c2.1,0,3,3.5,3,7c0,0.6-0.4,1-1,1c0,0,0,0,0,0H8c-0.6,0-1-0.5-1-1c0,0,0,0,0,0C7,42.5,7.9,39,10,39z"/>
	<path class="st0" d="M30,49c-3.8,0-4.9,4.7-5,9h10C34.9,53.7,33.8,49,30,49z"/>
	<path class="st0" d="M10,41.1c-0.6,1.2-1,2.5-1,3.9H11C11,43.6,10.6,42.3,10,41.1z"/>
</g>
</svg>
